<?xml version="1.0" encoding="UTF-8" standalone="no"?>
<!-- Created with Inkscape (http://www.inkscape.org/) -->

<svg
   xmlns:dc="http://purl.org/dc/elements/1.1/"
   xmlns:cc="http://creativecommons.org/ns#"
   xmlns:rdf="http://www.w3.org/1999/02/22-rdf-syntax-ns#"
   xmlns:svg="http://www.w3.org/2000/svg"
   xmlns="http://www.w3.org/2000/svg"
   xmlns:xlink="http://www.w3.org/1999/xlink"
   xmlns:sodipodi="http://sodipodi.sourceforge.net/DTD/sodipodi-0.dtd"
   xmlns:inkscape="http://www.inkscape.org/namespaces/inkscape"
   width="210mm"
   height="297mm"
   viewBox="0 0 744.09448819 1052.3622047"
   id="svg2"
   version="1.1"
   inkscape:version="0.91 r13725"
   inkscape:export-filename="D:\yoctofriday\MagneticCardReader\card_bg.png"
   inkscape:export-xdpi="842.10999"
   inkscape:export-ydpi="842.10999"
   sodipodi:docname="card_bg.svg">
  <defs
     id="defs4">
    <linearGradient
       gradientTransform="matrix(0.11658601,0,0,0.11658601,56.069351,77.368627)"
       inkscape:collect="always"
       xlink:href="#linearGradient4371-9"
       id="linearGradient4047"
       gradientUnits="userSpaceOnUse"
       x1="-0.84051639"
       y1="97.352676"
       x2="744.935"
       y2="97.352676" />
    <linearGradient
       id="linearGradient4371-9">
      <stop
         id="stop4373-4"
         style="stop-color:#f5f5f5;stop-opacity:1"
         offset="0" />
      <stop
         id="stop4375-8"
         style="stop-color:#e6e6e6;stop-opacity:1"
         offset="1" />
    </linearGradient>
    <linearGradient
       gradientTransform="matrix(0.11658601,0,0,0.11658601,56.069351,77.368627)"
       inkscape:collect="always"
       xlink:href="#linearGradient4371-9"
       id="linearGradient4050"
       gradientUnits="userSpaceOnUse"
       x1="-0.5"
       y1="58.251617"
       x2="744.59448"
       y2="58.251617" />
  </defs>
  <sodipodi:namedview
     id="base"
     pagecolor="#ffffff"
     bordercolor="#666666"
     borderopacity="1.0"
     inkscape:pageopacity="0.0"
     inkscape:pageshadow="2"
     inkscape:zoom="11.2"
     inkscape:cx="125.23518"
     inkscape:cy="935.74869"
     inkscape:document-units="px"
     inkscape:current-layer="layer1"
     showgrid="false"
     inkscape:window-width="3072"
     inkscape:window-height="1665"
     inkscape:window-x="-8"
     inkscape:window-y="-8"
     inkscape:window-maximized="1" />
  <metadata
     id="metadata7">
    <rdf:RDF>
      <cc:Work
         rdf:about="">
        <dc:format>image/svg+xml</dc:format>
        <dc:type
           rdf:resource="http://purl.org/dc/dcmitype/StillImage" />
        <dc:title></dc:title>
      </cc:Work>
    </rdf:RDF>
  </metadata>
  <g
     inkscape:label="Calque 1"
     inkscape:groupmode="layer"
     id="layer1">
    <rect
       style="opacity:0.447;fill:#ffffff;fill-opacity:1;fill-rule:evenodd;stroke:none;stroke-width:0.55233759;stroke-linecap:round;stroke-linejoin:round;stroke-miterlimit:4;stroke-dasharray:none;stroke-dashoffset:0;stroke-opacity:1"
       id="rect4136-6"
       width="84.947662"
       height="54.947662"
       x="56.896313"
       y="76.073418"
       ry="3.7067869"
       inkscape:export-xdpi="600"
       inkscape:export-ydpi="600" />
    <path
       style="fill:url(#linearGradient4050);fill-opacity:1;stroke:none"
       d="M 59.712891 76.080078 C 58.031105 76.080078 56.677734 77.435402 56.677734 79.117188 L 56.677734 90.945312 C 85.008093 90.926832 113.72012 85.634806 141.67773 85.275391 L 141.67773 79.117188 C 141.67773 77.435402 140.32241 76.080078 138.64062 76.080078 L 59.712891 76.080078 z "
       id="path3833-8"
       inkscape:export-xdpi="600"
       inkscape:export-ydpi="600" />
    <path
       style="color:#000000;font-style:normal;font-variant:normal;font-weight:normal;font-stretch:normal;font-size:medium;line-height:normal;font-family:sans-serif;text-indent:0;text-align:start;text-decoration:none;text-decoration-line:none;text-decoration-style:solid;text-decoration-color:#000000;letter-spacing:normal;word-spacing:normal;text-transform:none;direction:ltr;block-progression:tb;writing-mode:lr-tb;baseline-shift:baseline;text-anchor:start;white-space:normal;clip-rule:nonzero;display:inline;overflow:visible;visibility:visible;opacity:1;isolation:auto;mix-blend-mode:normal;color-interpolation:sRGB;color-interpolation-filters:linearRGB;solid-color:#000000;solid-opacity:1;fill:url(#linearGradient4047);fill-opacity:1;fill-rule:nonzero;stroke:none;stroke-width:0.34975803;stroke-linecap:butt;stroke-linejoin:miter;stroke-miterlimit:4;stroke-dasharray:none;stroke-dashoffset:0;stroke-opacity:1;color-rendering:auto;image-rendering:auto;shape-rendering:auto;text-rendering:auto;enable-background:accumulate"
       d="M 141.49609 85.708984 C 113.65824 86.08884 85.003189 91.357454 56.839844 91.396484 L 56.839844 91.746094 C 85.044437 91.707047 113.70137 86.438789 141.49609 86.058594 L 141.49609 85.708984 z "
       id="path2526"
       inkscape:export-xdpi="600"
       inkscape:export-ydpi="600" />
    <path
       inkscape:connector-curvature="0"
       style="fill:#000000;fill-opacity:1;fill-rule:evenodd;stroke:none"
       d="m 129.91972,78.889993 c -0.13562,0 -0.25411,0.09348 -0.28505,0.225522 -0.031,0.132034 0.0331,0.267129 0.15454,0.327411 l 0,1.079534 c 0,0.137709 0.0549,0.270114 0.15225,0.367477 l 0.33772,0.337713 c -0.46164,0.601415 -0.66885,1.372171 -0.57469,2.136176 l 0,0.0068 c -0.0707,-0.01995 -0.13233,-0.05104 -0.18316,-0.09502 l -0.55865,-0.5598 c -0.003,-0.003 -0.007,-0.0051 -0.009,-0.008 -0.0964,-0.09185 -0.22482,-0.143099 -0.35832,-0.143099 l -1.91409,0 -0.0126,0 c -0.0603,-0.12148 -0.19652,-0.185492 -0.32854,-0.154546 -0.13204,0.03096 -0.22553,0.14829 -0.22553,0.283907 0,0.135619 0.0935,0.252963 0.22553,0.283908 0.13202,0.03096 0.26828,-0.03305 0.32854,-0.154546 l 1.84884,0 c 0.0648,5e-6 0.12747,0.02415 0.17516,0.06754 0.003,0.0028 0.007,0.0063 0.009,0.0091 l 0.9765,0.976503 c 0.0257,0.02951 0.0511,0.06134 0.0767,0.09387 0.0793,0.100936 0.15759,0.214955 0.23126,0.336567 0.0424,0.08556 0.0891,0.168968 0.13966,0.249564 l 0.0149,0.02748 c 0.32049,0.631918 0.47449,1.32568 0.0698,1.338257 l -2.02054,0 -0.0126,0 c -0.1377,0 -0.2701,0.0549 -0.36748,0.152258 l -1.30963,1.309637 c -0.12855,-0.04328 -0.26967,0.0084 -0.34116,0.123639 -0.0715,0.115253 -0.0546,0.263563 0.0412,0.359464 0.096,0.09589 0.24537,0.113839 0.36062,0.04236 0.11525,-0.07147 0.16578,-0.212631 0.12249,-0.341147 l 1.30964,-1.309638 c 0.0487,-0.04867 0.11546,-0.0767 0.18431,-0.0767 l 2.03315,0 c 0.004,7.3e-5 0.009,8.99e-4 0.0138,0.0011 0.52229,0.02301 1.18123,0.762573 1.19516,1.234083 l 0,1.357718 c 0,0.0581 -0.0196,0.113785 -0.055,0.159126 -0.007,0.0084 -0.013,0.01643 -0.0206,0.02404 l -1.40237,1.402366 c -0.0974,0.09738 -0.15222,0.228628 -0.15225,0.366332 l 0,0.185456 c -0.12146,0.06028 -0.18552,0.195373 -0.15455,0.327409 0.031,0.132047 0.14943,0.225523 0.28505,0.225523 0.13562,0 0.25295,-0.09348 0.2839,-0.225523 0.031,-0.132036 -0.033,-0.267128 -0.15454,-0.327409 l 0,-0.185456 c 0,-0.06887 0.0269,-0.134477 0.0756,-0.183167 l 1.40236,-1.402363 c 0.008,-0.0075 0.0148,-0.01498 0.0217,-0.02289 0.0837,-0.09463 0.13052,-0.216343 0.13052,-0.343436 l 0,-1.327956 c 1e-4,-0.0044 7.7e-4,-0.0083 0.001,-0.01259 0.0397,-0.493147 1.41343,-0.632891 1.44701,0.01259 l 0,0.810512 c 0,0.137708 0.0538,0.268968 0.15111,0.366332 l 1.40237,1.402366 c 0.0414,0.04144 0.0676,0.09578 0.0744,0.153401 0.001,0.01014 0.001,0.01951 0.001,0.02977 l 0,0.689163 0,0.01374 c -0.12149,0.06028 -0.18552,0.195374 -0.15456,0.32741 0.031,0.132047 0.14944,0.225522 0.28506,0.225522 0.13562,0 0.25295,-0.09348 0.2839,-0.225522 0.031,-0.132036 -0.0331,-0.267128 -0.15454,-0.32741 l 0,-0.7029 c 0,-0.01036 -5.2e-4,-0.02062 -0.001,-0.03091 -0.008,-0.126412 -0.061,-0.24536 -0.15112,-0.335421 l -1.40122,-1.402367 c -0.0487,-0.04869 -0.0767,-0.114318 -0.0767,-0.183165 l 0,-0.810511 c 0.011,-0.666094 0.54254,-0.897557 0.94445,-0.918121 l 2.6456,0 c 0.0648,6e-6 0.12748,0.02415 0.17516,0.06754 0.003,0.0028 0.006,0.0063 0.008,0.0091 l 0.96277,0.962768 c -0.0433,0.128517 0.008,0.269665 0.12249,0.341147 0.11525,0.07148 0.26471,0.05354 0.36061,-0.04236 0.0959,-0.0959 0.11382,-0.244211 0.0423,-0.359464 -0.0696,-0.112318 -0.20614,-0.163452 -0.33199,-0.125927 -0.003,0.001 -0.006,0.0011 -0.009,0.0023 l -0.96277,-0.962767 c -0.003,-0.003 -0.007,-0.0051 -0.009,-0.008 -0.0964,-0.09186 -0.22481,-0.1431 -0.35831,-0.1431 l -2.52198,0 -0.0126,0 c -0.63988,-0.0077 0.39587,-2.064039 0.82082,-2.082368 l 1.61072,0 c 0.004,0 0.009,1.11e-4 0.0138,0 0.13285,-0.0034 0.25951,-0.05805 0.35374,-0.152258 l 1.0658,-1.064653 c 0.12853,0.04328 0.26967,-0.0084 0.34114,-0.123636 0.0715,-0.115253 0.0535,-0.263564 -0.0423,-0.359464 -0.096,-0.09589 -0.24421,-0.11384 -0.35947,-0.04236 -0.11525,0.07147 -0.16692,0.212631 -0.12363,0.341148 l -1.06466,1.065794 c -0.0454,0.04543 -0.10676,0.07216 -0.17058,0.07555 -0.004,2.56e-4 -0.009,0 -0.0138,0 l -1.66566,0 -0.0126,0 c -0.0671,-0.0082 -0.13048,-0.03966 -0.19118,-0.08929 0.002,-0.0088 0.004,-0.01753 0.007,-0.02633 0.264,-0.924275 0.06,-1.92636 -0.54264,-2.659344 l 0,-1.262702 c 0,-0.06887 0.028,-0.134476 0.0767,-0.183165 l 0.24842,-0.248419 c 0.12853,0.04327 0.27081,-0.0084 0.3423,-0.123638 0.0715,-0.115253 0.0535,-0.264709 -0.0424,-0.360609 -0.096,-0.09589 -0.24536,-0.112693 -0.36062,-0.04121 -0.11525,0.07147 -0.16578,0.21263 -0.12249,0.341148 l -0.24842,0.249563 c -0.0974,0.09738 -0.15225,0.228626 -0.15225,0.366332 l 0,0.987953 c -1.08798,-1.006926 -2.74235,-0.943423 -3.75606,0.143105 l -0.006,0.0068 -0.32283,-0.321686 c -0.0487,-0.04867 -0.0756,-0.115463 -0.0756,-0.18431 l 0,-1.079537 c 0.12149,-0.06028 0.18551,-0.19537 0.15455,-0.327409 -0.0309,-0.132035 -0.14829,-0.225523 -0.28391,-0.225523 z m 0,0.161414 c 0.0717,0 0.12936,0.05882 0.12936,0.130505 0,0.07169 -0.0577,0.129362 -0.12936,0.129362 -0.0717,0 -0.13051,-0.05767 -0.13051,-0.129362 0,-0.07169 0.0588,-0.130505 0.13051,-0.130505 z m 4.96723,0 c 0.0717,0 0.12936,0.05882 0.12936,0.130505 0,0.07169 -0.0577,0.129362 -0.12936,0.129362 -0.0717,0 -0.13051,-0.05767 -0.13051,-0.129362 0,-0.07169 0.0588,-0.130505 0.13051,-0.130505 z m -8.47944,3.513357 c 0.0717,0 0.12935,0.05767 0.12935,0.129361 0,0.07169 -0.0577,0.129361 -0.12935,0.129361 -0.0717,0 -0.13051,-0.05767 -0.13051,-0.129361 0,-0.07169 0.0588,-0.129361 0.13051,-0.129361 z m 11.99165,0 c 0.0717,0 0.12937,0.05767 0.12937,0.129361 0,0.07169 -0.0576,0.129361 -0.12937,0.129361 -0.0717,0 -0.12936,-0.05767 -0.12936,-0.129361 0,-0.07169 0.0576,-0.129361 0.12936,-0.129361 z m -6.99007,1.592401 c 0.30014,-0.01069 0.58816,0.257408 0.6697,0.622765 -0.0753,-0.0982 -0.20521,-0.136761 -0.32169,-0.09502 -0.11648,0.04174 -0.1931,0.154521 -0.18888,0.278184 0.004,0.123647 0.0881,0.229606 0.2072,0.263301 0.11905,0.03368 0.24642,-0.01365 0.31482,-0.116768 -0.057,0.350868 -0.32889,0.560327 -0.63193,0.486535 -0.30303,-0.07379 -0.54148,-0.407213 -0.55408,-0.775021 -0.0126,-0.367824 0.20472,-0.653297 0.50486,-0.663978 z m 1.98735,0 c 0.30014,0.01069 0.51741,0.296154 0.50485,0.663978 -0.0126,0.367808 -0.25105,0.701228 -0.55408,0.775021 -0.30303,0.07379 -0.57377,-0.135667 -0.63078,-0.486535 0.0684,0.103117 0.19577,0.15045 0.31482,0.116768 0.11906,-0.03369 0.20182,-0.139651 0.20607,-0.2633 0.004,-0.123664 -0.0713,-0.236425 -0.18775,-0.278185 -0.11647,-0.04174 -0.2464,-0.0032 -0.32169,0.09502 0.0815,-0.365356 0.36842,-0.633448 0.66856,-0.622765 z m -6.98893,3.374836 c 0.0717,0 0.12935,0.05767 0.12935,0.129361 0,0.07169 -0.0577,0.129362 -0.12935,0.129362 -0.0717,0 -0.13051,-0.05767 -0.13051,-0.129362 0,-0.07169 0.0588,-0.129361 0.13051,-0.129361 z m 11.99165,0 c 0.0717,0 0.12937,0.05767 0.12937,0.129361 0,0.07169 -0.0576,0.129362 -0.12937,0.129362 -0.0717,0 -0.12936,-0.05767 -0.12936,-0.129362 0,-0.07169 0.0576,-0.129361 0.12936,-0.129361 z m -8.47944,3.512211 c 0.0717,0 0.12936,0.05767 0.12936,0.12936 0,0.07169 -0.0577,0.130508 -0.12936,0.130508 -0.0717,0 -0.13051,-0.05882 -0.13051,-0.130508 0,-0.07169 0.0588,-0.12936 0.13051,-0.12936 z m 4.96723,0 c 0.0717,0 0.12936,0.05767 0.12936,0.12936 0,0.07169 -0.0577,0.130508 -0.12936,0.130508 -0.0717,0 -0.13051,-0.05882 -0.13051,-0.130508 0,-0.07169 0.0588,-0.12936 0.13051,-0.12936 z"
       id="path3045"
       inkscape:export-xdpi="600"
       inkscape:export-ydpi="600" />
    <path
       inkscape:connector-curvature="0"
       style="fill:#1d1d1d;fill-opacity:1;stroke:none"
       d="m 79.532174,84.156641 c -0.111681,-0.02362 -0.19819,-0.08801 -0.246198,-0.183349 -0.01,-0.02005 -0.02224,-0.05121 -0.02686,-0.06922 -0.01124,-0.04171 -0.01124,-0.124636 -2.87e-4,-0.166584 0.02024,-0.07983 0.07708,-0.159114 0.14591,-0.203787 l 0.03248,-0.02105 0.0025,-1.201376 0.0025,-1.201376 0.01824,-0.05259 c 0.02973,-0.08576 0.05034,-0.111381 0.250996,-0.311668 0.09944,-0.09923 0.191445,-0.187749 0.204499,-0.196701 0.0346,-0.02371 0.09594,-0.05132 0.138253,-0.06219 0.03448,-0.0089 0.106309,-0.0095 1.131792,-0.0095 1.053765,0 1.096339,4.36e-4 1.132766,0.01012 0.04909,0.01317 0.09644,0.03463 0.135929,0.06171 0.01749,0.01199 0.115929,0.10651 0.218853,0.210138 l 0.187148,0.188411 0.02498,0.05137 c 0.04472,0.09177 0.04335,0.07963 0.04547,0.402424 0.0025,0.302979 1.5e-4,0.333033 -0.02286,0.399342 -0.02736,0.07861 -0.0466,0.102537 -0.232182,0.289527 -0.09544,0.09614 -0.188134,0.185824 -0.205961,0.199292 -0.03885,0.02938 -0.07883,0.05007 -0.129795,0.06731 l -0.03785,0.01279 -1.281462,0.0027 -1.281463,0.0027 -0.0012,0.568078 -0.0012,0.568079 0.02149,0.01212 c 0.133905,0.07525 0.202388,0.2434 0.159115,0.39064 -0.03186,0.108446 -0.125548,0.201982 -0.234618,0.234279 -0.03623,0.01074 -0.118303,0.01525 -0.15102,0.0084 l 0,0 z m 0.09532,-0.238129 c 0.02061,-0.0077 0.04997,-0.03642 0.05909,-0.05762 0.01124,-0.0248 0.0087,-0.0633 -0.0025,-0.08757 -0.04322,-0.08475 -0.163849,-0.07529 -0.194143,0.01522 -0.0075,0.02265 -0.0075,0.03535 -5.87e-4,0.06121 0.01537,0.0553 0.08407,0.08937 0.138639,0.06877 l 0,0 z m 2.643026,-1.85527 c 0.02436,-0.01369 0.347374,-0.340027 0.353907,-0.35757 0.0037,-0.0099 0.0062,-0.109708 0.0062,-0.282733 0,-0.253512 -5.75e-4,-0.268559 -0.01,-0.287571 -0.01524,-0.02946 -0.328099,-0.339246 -0.353046,-0.349629 -0.01786,-0.0075 -0.135517,-0.0084 -1.081398,-0.0082 -1.025095,9.4e-5 -1.062035,5.83e-4 -1.082922,0.01024 -0.02611,0.01224 -0.344488,0.330065 -0.355194,0.354627 -0.005,0.01283 -0.0075,0.110295 -0.0087,0.467323 -8.74e-4,0.248109 -2.87e-4,0.454344 0.0012,0.458304 0.0025,0.006 0.217141,0.007 1.258689,0.0057 1.165846,-0.0012 1.25709,-0.0021 1.272156,-0.01049 z m -8.814784,2.058274 c -0.05659,-0.01237 -0.102062,-0.03801 -0.147522,-0.0835 -0.06571,-0.06576 -0.09182,-0.128075 -0.09169,-0.218985 3.8e-5,-0.02688 0.0037,-0.06224 0.0075,-0.07858 0.01799,-0.06746 0.06571,-0.135814 0.121175,-0.173448 l 0.02736,-0.01854 1e-4,-1.385546 1.12e-4,-1.385546 -0.455545,9.6e-5 c -0.433859,9.4e-5 -0.45657,5.82e-4 -0.477169,0.01024 -0.01324,0.0061 -0.05921,0.04798 -0.118053,0.107134 l -0.09644,0.09701 0.0062,0.04321 c 0.03198,0.208667 -0.160801,0.389647 -0.368061,0.345605 -0.123174,-0.02618 -0.214343,-0.118527 -0.240577,-0.243846 -0.01949,-0.09322 0.0087,-0.193076 0.07395,-0.265035 0.07021,-0.07703 0.16947,-0.11353 0.270846,-0.09965 l 0.04285,0.0059 0.10631,-0.104648 c 0.133268,-0.131252 0.170957,-0.157468 0.264987,-0.184294 l 0.04135,-0.01174 1.06517,-0.0016 c 0.720233,-0.0012 1.081261,1.46e-4 1.114828,0.004 0.05647,0.0065 0.121425,0.02767 0.167534,0.05475 0.02011,0.01187 0.07295,0.0593 0.146073,0.131315 l 0.114555,0.112806 0.04497,-0.0064 c 0.127322,-0.018 0.254444,0.04672 0.31382,0.159768 0.02611,0.04978 0.0366,0.09148 0.0366,0.145462 0,0.134456 -0.07808,0.243797 -0.209571,0.293651 -0.03136,0.01187 -0.0451,0.01382 -0.09869,0.01382 -0.05359,0 -0.06721,-0.0019 -0.09869,-0.01382 -0.104186,-0.03949 -0.174605,-0.115754 -0.201214,-0.217925 -0.01,-0.0365 -0.01124,-0.102125 -0.0025,-0.137592 l 0.005,-0.02402 -0.09619,-0.09641 c -0.05672,-0.05679 -0.10531,-0.100814 -0.118177,-0.107097 -0.02136,-0.01037 -0.03485,-0.01074 -0.47717,-0.01074 l -0.455183,0 0,1.385679 0,1.385677 0.03273,0.02382 c 0.04935,0.0359 0.08882,0.09182 0.111057,0.157047 0.01412,0.04144 0.01412,0.136774 8.8e-5,0.178431 -0.01762,0.05218 -0.04297,0.09365 -0.07908,0.129769 -0.07495,0.07502 -0.181463,0.10626 -0.285225,0.08372 l 0,0 z m 0.124299,-0.213309 c 0.03335,-0.02289 0.0446,-0.04548 0.0446,-0.08985 0,-0.03566 -0.0012,-0.04091 -0.01674,-0.05987 -0.0087,-0.01149 -0.02398,-0.02502 -0.03298,-0.03022 -0.06184,-0.03627 -0.142363,0.004 -0.155892,0.07804 -0.0075,0.03971 0.02011,0.08972 0.05896,0.107909 0.03036,0.01418 0.07658,0.01149 0.102062,-0.006 z M 71.97167,81.172608 c 0.07395,-0.03795 0.08082,-0.134341 0.01287,-0.18159 -0.03111,-0.02166 -0.07895,-0.02315 -0.110682,-0.0035 -0.0411,0.02546 -0.06146,0.07828 -0.0471,0.121813 0.01961,0.05954 0.09132,0.09077 0.145023,0.06321 z m 3.197185,-0.0022 c 0.03386,-0.01791 0.05509,-0.05354 0.05472,-0.09214 -2.88e-4,-0.03265 -0.0087,-0.05314 -0.03173,-0.07477 -0.0326,-0.03092 -0.07458,-0.03879 -0.112681,-0.02112 -0.04247,0.01965 -0.06221,0.05134 -0.06221,0.09989 0,0.0764 0.08295,0.124561 0.151894,0.08816 z m -14.277714,2.786609 c -0.09369,-0.0249 -0.128709,-0.04916 -0.262377,-0.181922 l -0.110931,-0.110219 -0.01874,0.0054 c -0.02798,0.008 -0.106934,0.0065 -0.142475,-0.0027 -0.100938,-0.02628 -0.180477,-0.09995 -0.21498,-0.199064 -0.02761,-0.0792 -0.02024,-0.170456 0.01986,-0.246756 0.0341,-0.06501 0.100314,-0.121363 0.171558,-0.14624 0.0461,-0.0161 0.119676,-0.01994 0.167434,-0.0087 0.16305,0.03835 0.270022,0.20201 0.23593,0.360961 l -0.0062,0.02832 0.102062,0.100626 c 0.08207,0.0809 0.106435,0.101887 0.124299,0.107122 0.03186,0.0092 2.112814,0.0095 2.145332,1.06e-4 0.01861,-0.0054 0.04872,-0.03263 0.183537,-0.166264 0.0887,-0.08795 0.167772,-0.17086 0.175717,-0.184243 l 0.01449,-0.02433 0,-0.456892 0,-0.456894 -1.281462,-0.0027 -1.281463,-0.0027 -0.03785,-0.01279 c -0.05097,-0.01724 -0.09094,-0.03793 -0.129795,-0.06731 -0.01786,-0.01347 -0.110557,-0.103149 -0.205961,-0.199294 -0.185611,-0.186953 -0.204899,-0.210992 -0.232107,-0.289399 -0.02299,-0.06633 -0.02411,-0.08939 -0.02411,-0.50496 l -5e-5,-0.397868 -0.02973,-0.02051 c -0.07908,-0.05452 -0.12701,-0.147745 -0.12701,-0.247396 0,-0.06003 0.01,-0.101063 0.03548,-0.150011 0.07695,-0.146392 0.260216,-0.203414 0.413022,-0.128494 0.0742,0.03638 0.139901,0.120763 0.159839,0.205309 0.02836,0.120064 -0.02336,0.253628 -0.125286,0.323736 l -0.02336,0.01609 0,0.39733 c 0,0.327842 0.0012,0.400371 0.0075,0.414727 0.0037,0.0096 0.08307,0.09253 0.177079,0.185926 0.144848,0.143989 0.172781,0.169382 0.191782,0.174389 0.01574,0.0041 0.386475,0.0055 1.267946,0.0045 l 1.245697,-0.0014 0.0012,-0.585121 0.0013,-0.58512 -0.02861,-0.02111 c -0.159652,-0.11794 -0.17879,-0.333651 -0.04185,-0.471955 0.118927,-0.120201 0.313782,-0.121463 0.433583,-0.0029 0.0837,0.08287 0.113431,0.203256 0.07783,0.315264 -0.01811,0.05718 -0.05834,0.114005 -0.10581,0.149953 l -0.0351,0.02647 -0.0025,1.219848 -0.0025,1.219849 -0.01487,0.04326 c -0.03273,0.09543 -0.0416,0.106535 -0.252082,0.316975 -0.208822,0.208758 -0.22405,0.221066 -0.311621,0.251802 l -0.04322,0.01518 -1.111142,0.001 c -1.067969,0.001 -1.112604,7.29e-4 -1.148994,-0.009 z m -0.43256,-0.48742 c 0.08857,-0.02419 0.10706,-0.140353 0.03036,-0.189686 -0.02236,-0.01437 -0.02861,-0.0158 -0.06059,-0.01413 -0.02923,0.0015 -0.03935,0.0046 -0.05584,0.01724 -0.05347,0.04075 -0.05971,0.107521 -0.01474,0.155522 0.01811,0.01937 0.05084,0.03623 0.07133,0.03675 0.005,9.6e-5 0.01786,-0.0025 0.02973,-0.0057 z m 0,-2.741353 c 0.08857,-0.02419 0.10706,-0.140354 0.03036,-0.189687 -0.02236,-0.01437 -0.02861,-0.0158 -0.06059,-0.01413 -0.02923,0.0015 -0.03935,0.0046 -0.05584,0.01724 -0.05172,0.03945 -0.05959,0.105173 -0.01824,0.152265 0.01861,0.02116 0.03173,0.02943 0.05584,0.03525 0.02324,0.0056 0.02473,0.0056 0.04872,-0.001 z m 3.215012,-0.0079 c 0.02174,-0.01112 0.04697,-0.04307 0.05372,-0.06776 0.01124,-0.04197 -0.0037,-0.08241 -0.04097,-0.110894 -0.01649,-0.01257 -0.02661,-0.0157 -0.05584,-0.01724 -0.03211,-0.0017 -0.03823,-1.47e-4 -0.06059,0.01413 -0.07508,0.04825 -0.05821,0.164512 0.02761,0.189419 0.02161,0.0062 0.05572,0.0029 0.0762,-0.0076 z m 1.049018,3.236255 c -0.04822,-0.01267 -0.08732,-0.03009 -0.12897,-0.05747 -0.03435,-0.02255 -0.302627,-0.284545 -0.369598,-0.360891 -0.04885,-0.05565 -0.08095,-0.114729 -0.09694,-0.17843 -0.01,-0.04196 -0.01124,-0.06325 -0.01124,-1.134404 0,-0.984635 8.75e-4,-1.095452 0.0087,-1.130553 0.01,-0.04416 0.03585,-0.104098 0.06184,-0.142595 0.02261,-0.03354 0.343576,-0.357042 0.3863,-0.389369 0.04235,-0.03201 0.09657,-0.05905 0.147959,-0.0737 l 0.04135,-0.01174 1.067894,-0.0015 c 0.680731,-8.73e-4 1.083946,4.37e-4 1.112191,0.0039 0.05647,0.0069 0.118302,0.02745 0.16656,0.0555 0.05534,0.03221 0.407425,0.384313 0.439643,0.439641 0.02873,0.04938 0.04909,0.111519 0.05559,0.169591 0.0037,0.02877 0.005,0.455639 0.0037,1.111871 l -0.0012,1.06518 -0.01124,0.04133 c -0.01262,0.04429 -0.03635,0.09508 -0.06271,0.1344 -0.02161,0.03211 -0.343414,0.356113 -0.385013,0.387585 -0.0371,0.02805 -0.07695,0.04921 -0.127272,0.06743 l -0.03498,0.01268 -1.111143,0.001 c -1.084633,0.001 -1.112104,8.74e-4 -1.151092,-0.0094 z M 66.9377,83.661907 c 0.02748,-0.01137 0.344426,-0.326699 0.35848,-0.356668 0.01,-0.02091 0.01,-0.05659 0.01,-1.082401 1e-4,-0.725809 -0.0012,-1.065582 -0.005,-1.075997 -0.0075,-0.02022 -0.338192,-0.352112 -0.360491,-0.361811 -0.01474,-0.0064 -0.181189,-0.0076 -1.080261,-0.0076 -1.039849,0 -1.063309,1.46e-4 -1.082935,0.01049 -0.02973,0.01545 -0.344825,0.333546 -0.355094,0.358409 -0.0075,0.01784 -0.0087,0.13847 -0.0087,1.073293 0,0.738836 0.0012,1.059645 0.0062,1.074818 0.005,0.01808 0.0331,0.04903 0.171645,0.18848 0.108433,0.109096 0.173281,0.170353 0.187422,0.176962 0.02086,0.0097 0.05772,0.01012 1.080224,0.01024 0.93981,9.7e-5 1.060848,-8.73e-4 1.0787,-0.0082 z m 1.614483,0.295025 c -0.04597,-0.01212 -0.09544,-0.03613 -0.139889,-0.06787 -0.01786,-0.01275 -0.111806,-0.103099 -0.208696,-0.200772 -0.140414,-0.141462 -0.180914,-0.185496 -0.199141,-0.216477 -0.02811,-0.04768 -0.04635,-0.100339 -0.05434,-0.156487 -0.0037,-0.03059 -0.005,-0.345216 -0.0037,-1.12123 0.0012,-1.022795 0.0025,-1.08037 0.01124,-1.110946 0.01474,-0.04867 0.03835,-0.0975 0.06496,-0.134538 0.03698,-0.05138 0.383365,-0.391705 0.421466,-0.414053 0.0461,-0.02707 0.111057,-0.04827 0.167522,-0.05475 0.0336,-0.0039 0.393696,-0.0051 1.114828,-0.004 l 1.065183,0.0016 0.04135,0.01174 c 0.09394,0.02678 0.131719,0.05302 0.264987,0.18428 l 0.106309,0.104649 0.04285,-0.0059 c 0.186348,-0.02551 0.350697,0.119302 0.349523,0.307992 -8.62e-4,0.134573 -0.08557,0.250521 -0.213756,0.292518 -0.05422,0.01778 -0.130982,0.01806 -0.186561,7.28e-4 -0.107434,-0.03358 -0.188971,-0.126238 -0.211482,-0.240478 -0.0075,-0.03644 -0.0075,-0.05132 -0.0025,-0.09268 l 0.0062,-0.04927 -0.09582,-0.09654 c -0.05846,-0.0589 -0.104311,-0.100488 -0.117428,-0.106672 -0.02086,-0.0097 -0.05696,-0.01012 -1.083759,-0.01024 -1.046144,-9.5e-5 -1.062447,4.9e-5 -1.084109,0.01049 -0.03048,0.0148 -0.340228,0.325598 -0.351546,0.352787 -0.0075,0.01791 -0.0087,0.135798 -0.0087,1.082403 0,0.72661 0.0012,1.067109 0.0062,1.077521 0.0087,0.02246 0.332696,0.346524 0.359317,0.359003 0.02086,0.0099 0.05634,0.01012 1.075989,0.01024 0.754711,4.7e-5 1.060523,-0.0016 1.076001,-0.0059 0.01736,-0.0049 0.04148,-0.02566 0.123425,-0.106759 0.100313,-0.09925 0.101812,-0.10105 0.09856,-0.119689 -0.01986,-0.114192 0.0087,-0.212078 0.08295,-0.286228 0.139439,-0.138936 0.366487,-0.117665 0.474946,0.04448 0.03698,0.05524 0.05259,0.106248 0.05247,0.17145 -2.88e-4,0.173315 -0.134543,0.308199 -0.306787,0.308199 -0.02736,0 -0.05821,-0.0024 -0.06846,-0.0054 l -0.01861,-0.0054 -0.116429,0.114842 c -0.125448,0.123711 -0.147534,0.140151 -0.225899,0.16819 l -0.04735,0.01695 -1.111142,0.001 c -1.070967,0.001 -1.112529,7.28e-4 -1.149668,-0.0091 z m 2.791598,-0.500527 c 0.05596,-0.03283 0.06621,-0.107072 0.02161,-0.157842 -0.02061,-0.02345 -0.04397,-0.03388 -0.07608,-0.03388 -0.03136,0 -0.05034,0.0075 -0.07283,0.02872 -0.0351,0.03327 -0.0431,0.08045 -0.02074,0.122749 0.02936,0.05552 0.09257,0.07272 0.148021,0.04025 z m -0.01124,-2.283581 c 0.07645,-0.03472 0.08195,-0.140312 0.01,-0.185144 -0.03185,-0.01971 -0.07958,-0.01824 -0.110807,0.0035 -0.04322,0.03004 -0.05871,0.08372 -0.0376,0.129697 0.02486,0.05395 0.08495,0.07645 0.138689,0.05202 z m 4.912044,2.791061 c -0.05359,-0.0089 -0.126098,-0.04154 -0.175767,-0.07911 -0.0416,-0.03147 -0.363452,-0.355481 -0.385001,-0.387586 -0.02636,-0.03931 -0.05009,-0.09012 -0.06271,-0.1344 l -0.01124,-0.04133 -0.0012,-1.067883 c -0.001,-0.68173 4.37e-4,-1.083911 0.0037,-1.112201 0.0062,-0.05647 0.02748,-0.118365 0.05547,-0.166557 0.03223,-0.05533 0.384314,-0.407433 0.439642,-0.43964 0.04822,-0.02807 0.110058,-0.04869 0.16656,-0.0555 0.02823,-0.0034 0.43146,-0.0047 1.112192,-0.0039 l 1.067894,0.0015 0.04135,0.01174 c 0.05134,0.01464 0.10556,0.04167 0.147959,0.07368 0.04247,0.03207 0.363365,0.355637 0.386238,0.389403 0.02598,0.03835 0.05197,0.09831 0.06196,0.142595 0.0075,0.0351 0.0087,0.145918 0.0087,1.130553 0,1.078054 -1.13e-4,1.092168 -0.01124,1.134404 -0.01249,0.04736 -0.03323,0.09513 -0.05822,0.131636 -0.02386,0.0348 -0.377155,0.386801 -0.410772,0.409198 -0.03935,0.02626 -0.0787,0.04346 -0.128359,0.05615 -0.0416,0.01062 -0.05871,0.01087 -1.137688,0.01012 -0.60248,-4.37e-4 -1.101499,-0.0017 -1.108931,-0.003 z m 2.19254,-0.304017 c 0.01412,-0.0066 0.07908,-0.06787 0.187423,-0.176961 0.138552,-0.139444 0.166747,-0.170408 0.171644,-0.188481 0.0037,-0.01518 0.0062,-0.335983 0.0062,-1.074819 3.8e-5,-0.934823 -0.001,-1.055449 -0.0087,-1.073292 -0.01,-0.02486 -0.325425,-0.342961 -0.355095,-0.358408 -0.01961,-0.01024 -0.0431,-0.01049 -1.082934,-0.01049 -0.945894,0 -1.065058,0.001 -1.082835,0.0084 -0.02748,0.01149 -0.343726,0.327698 -0.355232,0.355227 -0.0075,0.01778 -0.0087,0.136951 -0.0087,1.082845 0,1.039839 1.5e-4,1.0633 0.01,1.082927 0.01462,0.02797 0.333332,0.344647 0.35723,0.354878 0.01661,0.0071 0.149183,0.0081 1.0787,0.0082 1.023871,9.4e-5 1.060498,-1.46e-4 1.081398,-0.01 z m 5.442156,0.296547 c -0.05784,-0.0151 -0.110057,-0.04152 -0.156803,-0.07935 -0.05284,-0.04274 -0.355045,-0.347816 -0.378043,-0.381642 -0.02598,-0.03824 -0.05209,-0.0982 -0.06209,-0.142796 -0.0075,-0.03544 -0.0087,-0.15247 -0.0087,-1.244776 l 5e-5,-1.20566 -0.02861,-0.02111 c -0.137665,-0.1017 -0.172294,-0.274315 -0.08432,-0.420454 0.02448,-0.04065 0.07321,-0.08492 0.118802,-0.107871 0.177753,-0.08951 0.384676,0.0017 0.440267,0.194201 0.01124,0.03795 0.01249,0.108795 0.0025,0.149758 -0.01624,0.06982 -0.06408,0.141283 -0.120925,0.180445 l -0.03061,0.02105 8.8e-5,1.192698 c 1e-4,1.154817 4.37e-4,1.193387 0.01,1.214328 0.01412,0.02997 0.330996,0.345315 0.358479,0.356668 0.01786,0.0074 0.138878,0.0082 1.0787,0.0082 1.023684,-9.6e-5 1.059312,-5.82e-4 1.080224,-0.01024 0.02998,-0.01405 0.345313,-0.330994 0.356668,-0.358477 0.0075,-0.01788 0.0087,-0.152449 0.0087,-1.211624 l 0,-1.191522 -0.02986,-0.02051 c -0.0792,-0.05452 -0.127022,-0.147747 -0.127022,-0.247398 0,-0.06004 0.01,-0.101063 0.03535,-0.150012 0.07695,-0.146391 0.260215,-0.203415 0.413021,-0.128493 0.0742,0.03639 0.139901,0.120763 0.159839,0.205308 0.02823,0.119652 -0.02373,0.253831 -0.125161,0.32365 l -0.02323,0.016 -0.0012,1.212348 -0.0012,1.21235 -0.01249,0.0421 c -0.01649,0.05821 -0.05022,0.120326 -0.09044,0.167113 -0.05147,0.05968 -0.342577,0.346056 -0.372359,0.366249 -0.03835,0.02597 -0.09831,0.05202 -0.1426,0.06195 -0.0351,0.0079 -0.145398,0.0087 -1.132767,0.0084 -1.068168,-2.91e-4 -1.094802,-5.83e-4 -1.134403,-0.01087 z m -0.410922,-3.235884 c 0.02998,-0.01548 0.05946,-0.06038 0.05946,-0.09023 -5e-5,-0.02405 -0.01124,-0.05344 -0.02861,-0.07277 -0.06284,-0.07149 -0.182638,-0.02616 -0.182163,0.06889 4.37e-4,0.07812 0.08295,0.129458 0.151282,0.0941 z m 3.171201,0.0077 c 0.08857,-0.02418 0.10706,-0.140354 0.03036,-0.189687 -0.02236,-0.01437 -0.02861,-0.0158 -0.06071,-0.01413 -0.02923,0.0015 -0.03948,0.0046 -0.05584,0.01724 -0.05172,0.03945 -0.05959,0.105173 -0.01824,0.152266 0.01861,0.02116 0.03161,0.02943 0.05584,0.03525 0.02324,0.0056 0.02473,0.0056 0.04859,-0.001 z m 1.069343,3.22855 c -0.0386,-0.01012 -0.101562,-0.03878 -0.133618,-0.06076 -0.02986,-0.02046 -0.371059,-0.362887 -0.395594,-0.396966 -0.02773,-0.03859 -0.05122,-0.08792 -0.06521,-0.13736 -0.01,-0.03322 -0.01,-0.08592 -0.01,-1.137864 l 0,-1.103031 0.01249,-0.04326 c 0.0075,-0.02378 0.02261,-0.06272 0.0351,-0.08651 0.02074,-0.03968 0.03773,-0.05864 0.206473,-0.228947 0.101188,-0.102125 0.198903,-0.19646 0.217204,-0.209623 0.03985,-0.02863 0.0882,-0.05114 0.139752,-0.06495 0.03648,-0.0097 0.07895,-0.01012 1.132766,-0.01012 1.228295,0 1.121936,-0.0035 1.213292,0.04 0.05984,0.02849 0.06696,0.03437 0.187697,0.155283 l 0.10606,0.106135 0.04535,-0.0064 c 0.151645,-0.0212 0.294195,0.0691 0.340816,0.215881 0.01462,0.04622 0.01574,0.124711 0.0025,0.17032 -0.03298,0.112606 -0.123674,0.198436 -0.234306,0.221881 -0.213406,0.04522 -0.408074,-0.143287 -0.368573,-0.356925 l 0.0062,-0.03159 -0.09644,-0.09703 c -0.05884,-0.05916 -0.10481,-0.100976 -0.118052,-0.10716 -0.02086,-0.0097 -0.05696,-0.01012 -1.082922,-0.01024 -0.946032,-9.6e-5 -1.063484,7.27e-4 -1.081411,0.0082 -0.02373,0.0099 -0.323514,0.305285 -0.347849,0.342789 l -0.01561,0.02404 0,1.067 c 0,0.952326 8.74e-4,1.06916 0.0087,1.087103 0.01249,0.02996 0.321627,0.337599 0.353882,0.352197 0.02423,0.01099 0.02961,0.01099 1.0787,0.01112 0.754699,4.9e-5 1.060511,-0.0016 1.075989,-0.0059 0.01736,-0.0049 0.04147,-0.02563 0.123424,-0.106759 0.08895,-0.08808 0.101313,-0.102475 0.09881,-0.114293 -0.03673,-0.168242 0.06658,-0.337096 0.229896,-0.375586 0.214206,-0.05049 0.413259,0.135278 0.376032,0.350963 -0.02099,0.121887 -0.109808,0.218883 -0.227685,0.248917 -0.03648,0.0092 -0.115304,0.01087 -0.14325,0.0029 l -0.01861,-0.0054 -0.116554,0.11483 c -0.12551,0.123674 -0.147646,0.140147 -0.225961,0.168168 l -0.04735,0.01695 -1.111142,0.001 c -1.076464,0.001 -1.112367,7.28e-4 -1.150243,-0.0092 z m 2.792097,-0.500354 c 0.02623,-0.01537 0.05059,-0.05826 0.05047,-0.08872 -1.37e-4,-0.0381 -0.03173,-0.08414 -0.06646,-0.09728 -0.02411,-0.0091 -0.06309,-0.0067 -0.08795,0.0052 -0.04922,0.02382 -0.07021,0.08688 -0.04572,0.137504 0.02798,0.05778 0.09282,0.07652 0.149608,0.04324 z m -0.01124,-2.283609 c 0.05784,-0.02625 0.07845,-0.09921 0.0431,-0.152733 -0.0446,-0.06776 -0.148409,-0.05977 -0.181914,0.01398 -0.04022,0.08848 0.05022,0.178948 0.138753,0.138754 z m 1.052054,2.783757 c -0.04785,-0.01257 -0.08782,-0.03028 -0.126273,-0.05599 -0.03935,-0.0263 -0.388361,-0.376768 -0.415132,-0.416924 -0.02636,-0.03951 -0.05122,-0.102087 -0.05921,-0.148979 -0.0037,-0.02477 -0.005,-0.352367 -0.005,-1.132483 l 0.0012,-1.097624 0.01274,-0.03785 c 0.01886,-0.05578 0.0396,-0.09379 0.07545,-0.138529 0.04048,-0.05049 0.346925,-0.354263 0.379442,-0.376207 0.0391,-0.02635 0.08995,-0.05015 0.134405,-0.06282 l 0.04135,-0.01174 1.065183,-0.0016 c 0.708302,-0.001 1.081535,1.46e-4 1.113978,0.004 0.02686,0.0031 0.06696,0.01174 0.08907,0.01926 0.07483,0.02545 0.107309,0.04952 0.22806,0.169097 l 0.111806,0.110632 0.0451,-0.0064 c 0.0767,-0.01087 0.151008,0.0069 0.216892,0.05181 0.0847,0.05776 0.133368,0.150743 0.133581,0.255336 2.87e-4,0.145212 -0.100938,0.268785 -0.246786,0.30123 -0.156866,0.0349 -0.320828,-0.06822 -0.361328,-0.227239 -0.0087,-0.03623 -0.01,-0.108108 -0.0025,-0.140798 l 0.005,-0.02162 -0.09956,-0.09877 c -0.05896,-0.05856 -0.107309,-0.102025 -0.118677,-0.106784 -0.01674,-0.007 -0.154305,-0.008 -1.080498,-0.0079 -1.02512,9.6e-5 -1.062035,5.83e-4 -1.082922,0.01024 -0.01412,0.0066 -0.07908,0.0679 -0.18746,0.17696 -0.141801,0.142681 -0.166673,0.170088 -0.171695,0.189177 -0.0037,0.01543 -0.005,0.160672 -0.005,0.470409 l 0.0012,0.448088 0.585128,0.0015 0.585115,0.0015 0.02111,-0.02857 c 0.117553,-0.15906 0.33442,-0.178283 0.470961,-0.04174 0.163949,0.163944 0.09894,0.435943 -0.122175,0.511708 -0.05509,0.01885 -0.131469,0.01996 -0.185624,0.0027 -0.06596,-0.02102 -0.132943,-0.07079 -0.16656,-0.123774 l -0.01462,-0.02297 -0.588014,0 -0.588013,0 5e-5,0.450132 c 0,0.305647 0.0025,0.457078 0.0062,0.471763 0.005,0.01816 0.03323,0.04905 0.177041,0.192831 0.143787,0.143782 0.174668,0.172138 0.192832,0.17705 0.01511,0.0041 0.336868,0.0059 1.076001,0.0057 1.019274,-9.7e-5 1.055089,-4.38e-4 1.075989,-0.01024 0.01324,-0.0062 0.05996,-0.04867 0.120301,-0.10942 l 0.09869,-0.09929 -0.005,-0.01884 c -0.0075,-0.02497 -0.0075,-0.09507 5.75e-4,-0.130841 0.01474,-0.07107 0.07221,-0.153484 0.135279,-0.193962 0.08982,-0.0576 0.206911,-0.06315 0.307224,-0.01454 0.04834,0.02344 0.111432,0.08625 0.134555,0.133886 0.04822,0.09954 0.0441,0.209543 -0.01124,0.301745 -0.03873,0.06456 -0.112431,0.119739 -0.185536,0.138773 -0.03435,0.009 -0.112056,0.01087 -0.143762,0.0035 l -0.01974,-0.0046 -0.09656,0.09697 c -0.128234,0.128762 -0.170058,0.159523 -0.258779,0.19033 -0.03235,0.01124 -0.0331,0.01124 -1.143585,0.01237 -1.084733,0.0012 -1.112091,0.001 -1.15108,-0.0094 l 0,0 z m 2.786125,-0.496411 c 0.0087,-0.0049 0.02311,-0.01815 0.03223,-0.02942 0.03023,-0.03749 0.02486,-0.108483 -0.01124,-0.139729 -0.03186,-0.02797 -0.08345,-0.03462 -0.1208,-0.01556 -0.06409,0.03272 -0.07558,0.121125 -0.02186,0.16963 0.01124,0.01062 0.02823,0.02087 0.03648,0.0227 0.0087,0.0019 0.01749,0.0041 0.02036,0.0052 0.01,0.0037 0.04885,-0.004 0.06434,-0.01287 z m -1.609261,-1.139263 c 0.04485,-0.01873 0.06858,-0.05747 0.06496,-0.106185 -0.0025,-0.03474 -0.01124,-0.05054 -0.04372,-0.07664 -0.04147,-0.0336 -0.110432,-0.02242 -0.143524,0.0233 -0.06146,0.08487 0.02648,0.199566 0.1223,0.159516 z m 1.606038,-1.149511 c 0.05971,-0.02891 0.07495,-0.114417 0.02911,-0.163465 -0.03036,-0.03257 -0.07508,-0.04339 -0.11343,-0.02742 -0.04247,0.01773 -0.06758,0.05384 -0.06758,0.09697 0,0.07988 0.07945,0.128983 0.151844,0.09392 z"
       id="path2830"
       sodipodi:nodetypes="cssscccccsssssscccsssscccccccsscccsssscccsssscsssscccscscccccscccsssccccccsscccsssssscccscccccssscccsssssccsssccsssscccccssssscccssscccccccssscccsssscccssscccccssscccccscccccsssssccsssssccsssssccssssssscccsssscccsscccccssssssscssscccsssssssssccccccsssscccsccsssscsssssssccccccccssssccsssccsscccsssscccsssssssscccsscsssssssscccssscccsssscccsscsscccsssscccccssscccsssccsssssccssscccsssssscccssscccscscccsscssssssccccccccssssccssccssscccsscccsscccsssscccscssscccccssscccccssscscccsssssscccsccccssssssccsssccsssc"
       inkscape:export-xdpi="600"
       inkscape:export-ydpi="600" />
    <rect
       style="opacity:0.447;fill:none;fill-opacity:1;fill-rule:evenodd;stroke:#000000;stroke-width:0.55233759;stroke-linecap:round;stroke-linejoin:round;stroke-miterlimit:4;stroke-dasharray:none;stroke-dashoffset:0;stroke-opacity:1"
       id="rect4136"
       width="84.947662"
       height="54.947662"
       x="56.801613"
       y="76.041847"
       ry="3.7067869"
       inkscape:export-xdpi="600"
       inkscape:export-ydpi="600" />
    <text
       xml:space="preserve"
       style="font-style:normal;font-variant:normal;font-weight:normal;font-stretch:normal;font-size:3.84324455px;line-height:100%;font-family:sans-serif;-inkscape-font-specification:'sans-serif, Normal';text-align:start;letter-spacing:0px;word-spacing:0px;writing-mode:lr-tb;text-anchor:start;fill:#000000;fill-opacity:1;stroke:none;stroke-width:1px;stroke-linecap:butt;stroke-linejoin:miter;stroke-opacity:1"
       x="119.54798"
       y="117.77382"
       id="text4798"
       sodipodi:linespacing="100%"
       inkscape:export-xdpi="600"
       inkscape:export-ydpi="600"><tspan
         sodipodi:role="line"
         id="tspan4800"
         x="119.54798"
         y="117.77382"
         style="font-style:normal;font-variant:normal;font-weight:normal;font-stretch:normal;font-size:1.60135186px;line-height:100%;font-family:Arial;-inkscape-font-specification:'Arial, Normal';text-align:start;writing-mode:lr-tb;text-anchor:start">GOOD</tspan><tspan
         sodipodi:role="line"
         x="119.54798"
         y="119.37517"
         id="tspan4802"
         style="font-style:normal;font-variant:normal;font-weight:normal;font-stretch:normal;font-size:1.60135186px;line-height:100%;font-family:Arial;-inkscape-font-specification:'Arial, Normal';text-align:start;writing-mode:lr-tb;text-anchor:start">THRU</tspan></text>
    <g
       id="g2492"
       transform="matrix(0.20024091,0,0,0.20024091,24.546784,57.949033)"
       inkscape:export-xdpi="600"
       inkscape:export-ydpi="600">
      <g
         id="g21453"
         transform="translate(0.7052948,-147.40661)">
        <rect
           style="opacity:1;fill:#d6b617;fill-opacity:1;stroke:#000000;stroke-width:0.85727918;stroke-linejoin:round;stroke-miterlimit:4;stroke-dasharray:none;stroke-opacity:0.98518521"
           id="rect3451"
           y="326.72989"
           x="179.45419"
           ry="18.650105"
           rx="18.650105"
           height="47.966698"
           width="58.314877" />
        <path
           inkscape:connector-curvature="0"
           style="opacity:1;fill:none;fill-rule:evenodd;stroke:#000000;stroke-width:0.47187081px;stroke-linecap:butt;stroke-linejoin:miter;stroke-opacity:1"
           id="path3457"
           d="m 183.77156,334.10484 c 6.33206,-0.12595 15.886,-0.55863 18.99454,-0.25521 4.91811,0.48004 3.53655,8.20266 -1.9255,7.70508 l 0.15465,18.55812 c 6.85427,-0.33827 5.42898,7.40913 -0.17247,7.4162 l -17.41944,0" />
        <path
           inkscape:connector-curvature="0"
           style="opacity:1;fill:none;fill-rule:evenodd;stroke:#000000;stroke-width:0.48931462px;stroke-linecap:butt;stroke-linejoin:miter;stroke-opacity:1"
           id="path3459"
           d="m 200.45452,355.18195 -16.93074,0" />
        <path
           inkscape:connector-curvature="0"
           style="opacity:1;fill:none;fill-rule:evenodd;stroke:#000000;stroke-width:0.49361372px;stroke-linecap:butt;stroke-linejoin:miter;stroke-opacity:1"
           id="path3461"
           d="m 200.36658,345.37161 -17.22956,0" />
        <path
           inkscape:connector-curvature="0"
           style="opacity:1;fill:none;fill-rule:evenodd;stroke:#000000;stroke-width:0.48931462px;stroke-linecap:butt;stroke-linejoin:miter;stroke-opacity:1"
           id="path3463"
           d="m 197.76459,367.20753 0,7.43687" />
        <path
           inkscape:connector-curvature="0"
           style="opacity:1;fill:none;fill-rule:evenodd;stroke:#000000;stroke-width:0.48931462px;stroke-linecap:butt;stroke-linejoin:miter;stroke-opacity:1"
           id="path3465"
           d="m 197.60636,367.52399 11.07619,0" />
        <path
           inkscape:connector-curvature="0"
           style="opacity:1;fill:none;fill-rule:evenodd;stroke:#000000;stroke-width:0.48276374px;stroke-linecap:butt;stroke-linejoin:miter;stroke-opacity:1"
           id="path3467"
           d="m 202.68086,367.6098 c -16.53184,0 -19.62255,-8.50108 -19.62255,-17.0801 0,-8.90732 2.18532,-16.63655 18.3567,-16.63655 6.91609,-0.15823 5.527,-5.15627 5.527,-6.6765" />
        <path
           inkscape:connector-curvature="0"
           style="opacity:1;fill:none;fill-rule:evenodd;stroke:#000000;stroke-width:0.47187081px;stroke-linecap:butt;stroke-linejoin:miter;stroke-opacity:1"
           id="path3471"
           d="m 233.484,334.16238 c -6.33206,-0.12595 -15.886,-0.55863 -18.99454,-0.25521 -4.91811,0.48004 -3.53655,8.20266 1.9255,7.70508 l -0.15465,18.55812 c -6.85427,-0.33827 -5.42898,7.40913 0.17247,7.4162 l 17.41944,0" />
        <path
           inkscape:connector-curvature="0"
           style="opacity:1;fill:none;fill-rule:evenodd;stroke:#000000;stroke-width:0.48931462px;stroke-linecap:butt;stroke-linejoin:miter;stroke-opacity:1"
           id="path3473"
           d="m 216.80104,355.23949 16.93074,0" />
        <path
           inkscape:connector-curvature="0"
           style="opacity:1;fill:none;fill-rule:evenodd;stroke:#000000;stroke-width:0.49361372px;stroke-linecap:butt;stroke-linejoin:miter;stroke-opacity:1"
           id="path3475"
           d="m 216.88898,345.42915 17.22956,0" />
        <path
           inkscape:connector-curvature="0"
           style="opacity:1;fill:none;fill-rule:evenodd;stroke:#000000;stroke-width:0.48931462px;stroke-linecap:butt;stroke-linejoin:miter;stroke-opacity:1"
           id="path3477"
           d="m 219.49097,367.26507 0,7.43687" />
        <path
           inkscape:connector-curvature="0"
           style="opacity:1;fill:none;fill-rule:evenodd;stroke:#000000;stroke-width:0.48931462px;stroke-linecap:butt;stroke-linejoin:miter;stroke-opacity:1"
           id="path3479"
           d="m 219.6492,367.58153 -11.07619,0" />
        <path
           inkscape:connector-curvature="0"
           style="opacity:1;fill:none;fill-rule:evenodd;stroke:#000000;stroke-width:0.48276374px;stroke-linecap:butt;stroke-linejoin:miter;stroke-opacity:1"
           id="path3481"
           d="m 214.5747,367.66734 c 16.53184,0 19.62255,-8.50108 19.62255,-17.0801 0,-8.90732 -2.18532,-16.63655 -18.3567,-16.63655 -6.91609,-0.15823 -5.77184,-4.91143 -5.77184,-6.43166" />
      </g>
    </g>
  </g>
</svg>
